# xmcd
#
# Track frame offsets: 
#        150
#        13930
#        29245
#        47254
#        63887
#        80521
#        96006
#        107618
#        120407
#        137138
#        153549
#        166701
#        181960
#        198595
#        211955
#        229622
#        245376
#        259417
#        278019
#        297663
#        315660
#
# Disc length: 4433 seconds
#
# Revision: 0
# Processed by: cddbd v1.5.2PL0 Copyright (c) Steve Scherf et al.
# Submitted via: ExactAudioCopyFreeDBPlugin 1.0
#
DISCID=28114f15
DTITLE=E-40 - The D-Boy Diary: Book 1
DYEAR=2016
DGENRE=Hip-Hop
TTITLE0=Stack it to the Ceiling
TTITLE1=Straight to the Point (feat. Ezale and G Eazy)
TTITLE2=Savage (feat. Jazze Pha and B-Legit)
TTITLE3=Puttin' in Work
TTITLE4=Mr. Arm and Hammer (feat. Stresmatic)
TTITLE5=Hunedz (feat. Rick Rock)
TTITLE6=Fired Up (feat. Cousin Fik)
TTITLE7=Bag On Me (feat. K.D. Stunts)
TTITLE8=Say So (feat. iStevie)
TTITLE9=Stay Away (feat. Eric Bellinger)
TTITLE10=Somebody (feat. Ricco Barrino)
TTITLE11=All Day 9feat. Gucci Mane)
TTITLE12=The Grit Don't Quit (feat. Nef The Pharaoh)
TTITLE13=Fake Lit (feat. June Onna Beat)
TTITLE14=Goon Music (feat. Stresmatic)
TTITLE15=Gangsta Song (feat. Kent Jones)
TTITLE16=Blessed by the Game
TTITLE17=We Flip (feat. Cousin Fik, Choose Up Cheese, and Stresmatic)
TTITLE18=I Had It in a Drought (feat. Stresmatic)
TTITLE19=Check (feat. Willy Will)
TTITLE20=Made It Out (feat. Young Chu)
EXTD=
EXTT0=
EXTT1=
EXTT2=
EXTT3=
EXTT4=
EXTT5=
EXTT6=
EXTT7=
EXTT8=
EXTT9=
EXTT10=
EXTT11=
EXTT12=
EXTT13=
EXTT14=
EXTT15=
EXTT16=
EXTT17=
EXTT18=
EXTT19=
EXTT20=
PLAYORDER=
